<svg id="Capa_1" enable-background="new 0 0 512 512" height="512" viewBox="0 0 512 512" width="512" xmlns="http://www.w3.org/2000/svg"><g><g><path clip-rule="evenodd" d="m465.021 63.283c-50.54-52.378-134.755-53.881-187.138-3.316l-21.883 21.087-21.883-21.087c-52.383-50.565-136.598-49.063-187.138 3.316-50.569 52.378-49.066 136.586 3.316 187.151l40.052 38.66v-23.894c0-38.604 24.236-53.229 44.333-61.873-8.844-9.438-14.258-22.136-14.258-36.081 0-29.137 23.612-52.775 52.751-52.775s52.78 23.638 52.78 52.775c0 13.945-5.442 26.643-14.286 36.081 16.355 7.029 35.404 17.998 41.952 42.572.794-.057 1.587-.057 2.381-.057s1.587 0 2.381.057c6.548-24.574 25.596-35.542 41.952-42.572-8.872-9.438-14.286-22.136-14.286-36.081 0-29.137 23.64-52.775 52.78-52.775 29.139 0 52.751 23.638 52.751 52.775 0 13.945-5.414 26.643-14.258 36.081 20.097 8.645 44.333 23.27 44.333 61.873v23.893l40.052-38.66c52.382-50.564 53.884-134.772 3.316-187.15z" fill="#dfedff" fill-rule="evenodd"/></g><g><path clip-rule="evenodd" d="m173.174 114.471c-29.139 0-52.751 23.638-52.751 52.775 0 13.945 5.414 26.643 14.258 36.081 9.638 10.26 23.328 16.666 38.493 16.666 15.193 0 28.884-6.406 38.493-16.666 8.844-9.438 14.286-22.136 14.286-36.081.001-29.137-23.64-52.775-52.779-52.775z" fill="#ffdcd5" fill-rule="evenodd"/></g><g><path clip-rule="evenodd" d="m134.681 203.327c-20.097 8.645-44.333 23.27-44.333 61.873v23.893l103.802 100.166v-30.866c0-28.825 18.085-39.766 33.108-46.228-6.605-7.029-10.658-16.524-10.658-26.926 0-20.974 16.384-38.122 37.019-39.341-6.548-24.574-25.596-35.542-41.952-42.572-9.609 10.26-23.3 16.666-38.493 16.666-15.165.001-28.856-6.405-38.493-16.665z" fill="#ff7b79" fill-rule="evenodd"/></g><g><path clip-rule="evenodd" d="m338.826 114.471c-29.139 0-52.78 23.638-52.78 52.775 0 13.945 5.414 26.643 14.286 36.081 9.609 10.26 23.3 16.666 38.493 16.666 15.165 0 28.856-6.406 38.493-16.666 8.844-9.438 14.258-22.136 14.258-36.081.001-29.137-23.611-52.775-52.75-52.775z" fill="#ffdcd5" fill-rule="evenodd"/></g><g><path clip-rule="evenodd" d="m300.333 203.327c-16.355 7.029-35.404 17.998-41.952 42.572 20.636 1.219 37.019 18.366 37.019 39.341 0 10.402-4.053 19.897-10.658 26.926 15.023 6.462 33.108 17.403 33.108 46.228v30.866l103.802-100.165v-23.895c0-38.604-24.236-53.229-44.333-61.873-9.638 10.26-23.328 16.666-38.493 16.666-15.193 0-28.884-6.406-38.493-16.666z" fill="#a0c8ff" fill-rule="evenodd"/></g><g><path clip-rule="evenodd" d="m253.619 245.899c-20.636 1.219-37.019 18.366-37.019 39.341 0 10.402 4.053 19.897 10.658 26.926 7.171 7.681 17.404 12.471 28.742 12.471s21.571-4.79 28.742-12.471c6.605-7.029 10.658-16.524 10.658-26.926 0-20.974-16.384-38.122-37.019-39.341-.794-.057-1.587-.057-2.381-.057s-1.587 0-2.381.057z" fill="#ffdcd5" fill-rule="evenodd"/></g><g><path clip-rule="evenodd" d="m227.258 312.165c-15.023 6.462-33.108 17.403-33.108 46.228v30.866l61.85 59.663 61.85-59.663v-30.866c0-28.825-18.085-39.766-33.108-46.228-7.171 7.681-17.404 12.471-28.742 12.471s-21.571-4.79-28.742-12.471z" fill="#ffcd69" fill-rule="evenodd"/></g><g><path clip-rule="evenodd" d="m66.339 391.243c-13.181-12.698-34.327-12.329-47.054.85-12.699 13.151-12.33 34.324.85 47.022l51.702 49.884 51.702-49.884c13.152-12.698 13.521-33.87.822-47.022-12.699-13.18-33.873-13.548-47.025-.85l-5.499 5.329z" fill="#ff7b79" fill-rule="evenodd"/></g><g><path clip-rule="evenodd" d="m434.663 391.243c-13.152-12.698-34.327-12.329-47.025.85-12.699 13.151-12.33 34.324.822 47.022l51.702 49.884 51.702-49.884c13.181-12.698 13.549-33.87.85-47.022-12.727-13.18-33.873-13.548-47.054-.85l-5.499 5.329z" fill="#ff7b79" fill-rule="evenodd"/></g><g><path d="m499.908 385.147c-16.102-16.675-42.488-17.609-59.744-2.431-8.094-7.144-18.444-10.959-29.372-10.75-11.583.209-22.363 4.894-30.348 13.181-7.998 8.282-12.291 19.221-12.089 30.802.202 11.582 4.875 22.364 13.16 30.362l51.703 49.885c1.938 1.869 4.44 2.804 6.943 2.804s5.006-.935 6.943-2.804l51.696-49.879c8.297-7.992 12.981-18.772 13.191-30.355.211-11.585-4.08-22.528-12.083-30.815zm-14.987 46.771-44.759 43.185-44.758-43.184c-4.438-4.285-6.943-10.081-7.052-16.32-.108-6.24 2.192-12.121 6.486-16.568 4.283-4.445 10.077-6.956 16.314-7.069.146-.002.292-.004.438-.004 6.077 0 11.788 2.291 16.113 6.467l5.499 5.328c3.879 3.758 10.039 3.758 13.918 0l5.479-5.309c9.241-8.901 24.009-8.634 32.922.595 4.288 4.44 6.587 10.322 6.475 16.561-.114 6.236-2.623 12.029-7.075 16.318z"/><path d="m101.199 371.966c-10.914-.208-21.26 3.605-29.361 10.749-17.234-15.176-43.636-14.251-59.745 2.432-8.002 8.287-12.294 19.231-12.084 30.815.209 11.582 4.894 22.362 13.185 30.349l51.703 49.885c1.937 1.869 4.44 2.804 6.943 2.804s5.006-.935 6.943-2.804l51.704-49.887c8.283-7.996 12.956-18.778 13.158-30.36.203-11.58-4.09-22.519-12.08-30.794-7.996-8.298-18.781-12.983-30.366-13.189zm15.398 59.952-44.759 43.185-44.765-43.191c-4.446-4.282-6.957-10.076-7.069-16.312-.113-6.239 2.187-12.12 6.475-16.561 4.565-4.728 10.666-7.103 16.77-7.103 5.814 0 11.634 2.156 16.131 6.489l5.499 5.328c3.878 3.758 10.039 3.758 13.917 0l5.486-5.315c4.44-4.286 10.295-6.557 16.559-6.476 6.239.111 12.035 2.622 16.328 7.077 4.287 4.439 6.587 10.32 6.479 16.561-.109 6.239-2.614 12.035-7.051 16.318z"/><path d="m499.758 97.153c-2.237-5.048-8.145-7.326-13.194-5.09-5.049 2.238-7.327 8.146-5.09 13.195 20.84 47.012 10.104 102.461-26.713 137.978l-23.109 22.299v-.335c0-36.854-19.927-55.14-39.081-65.601 5.713-9.454 9.006-20.525 9.006-32.353 0-34.614-28.15-62.775-62.751-62.775-34.616 0-62.779 28.161-62.779 62.775 0 11.819 3.29 22.882 8.997 32.331-10.76 5.816-21.531 13.935-29.044 26.416-7.513-12.481-18.284-20.601-29.044-26.416 5.707-9.448 8.997-20.512 8.997-32.331 0-34.614-28.163-62.775-62.78-62.775-34.601 0-62.751 28.161-62.751 62.775 0 11.828 3.293 22.9 9.007 32.353-19.154 10.462-39.081 28.747-39.081 65.601v.333l-23.107-22.296c-23.415-22.601-36.63-53.1-37.212-85.877-.582-32.779 11.544-63.724 34.146-87.135 22.589-23.411 53.081-36.625 85.859-37.207 32.793-.566 63.726 11.544 87.143 34.148l21.883 21.087c3.873 3.732 10.004 3.732 13.877 0l21.89-21.094c36.901-35.624 92.796-44.323 139.087-21.654 4.963 2.432 10.95.378 13.379-4.582 2.43-4.96.378-10.95-4.582-13.379-53.827-26.364-118.84-16.224-161.767 25.22l-14.944 14.402-14.938-14.395c-27.255-26.31-63.255-40.399-101.382-39.749-38.12.678-73.598 16.061-99.895 43.316-26.312 27.253-40.43 63.257-39.753 101.378.677 38.118 16.061 73.601 43.32 99.914l143.616 138.579c.122.126 62.088 59.91 62.088 59.91 1.938 1.869 4.44 2.804 6.944 2.804 2.503 0 5.007-.935 6.943-2.804l205.705-198.489c42.838-41.326 55.34-105.816 31.11-160.477zm-160.932 27.317c23.573 0 42.751 19.188 42.751 42.775 0 23.571-19.178 42.747-42.751 42.747-23.589 0-42.779-19.176-42.779-42.747 0-23.586 19.19-42.775 42.779-42.775zm-82.826 131.372c16.212 0 29.4 13.187 29.4 29.396 0 16.21-13.188 29.397-29.4 29.397-16.211 0-29.4-13.188-29.4-29.397 0-16.208 13.189-29.396 29.4-29.396zm-82.826-131.372c23.589 0 42.78 19.188 42.78 42.775 0 23.571-19.191 42.747-42.78 42.747-23.573 0-42.751-19.176-42.751-42.747 0-23.586 19.178-42.775 42.751-42.775zm10.976 233.923v7.303l-83.802-80.863v-19.632c0-28.665 14.923-41.492 32.412-50.006 10.927 9.223 25.028 14.798 40.414 14.798 15.39 0 29.496-5.573 40.427-14.794 10.295 5.016 20.368 11.902 26.45 23.3-19.434 6.649-33.451 25.082-33.451 46.74 0 8.377 2.103 16.27 5.798 23.189-14.198 8.324-28.248 22.552-28.248 49.965zm123.7 26.601-51.85 50.032-51.85-50.031v-26.601c0-18.492 8.323-27.666 21.328-34.356 8.409 6.629 19.007 10.6 30.522 10.6 11.514 0 22.112-3.97 30.522-10.599 13.005 6.69 21.329 15.865 21.329 34.356v26.599zm103.802-100.16-83.802 80.862v-7.303c0-27.413-14.05-41.641-28.248-49.965 3.695-6.919 5.798-14.812 5.798-23.189 0-21.657-14.017-40.09-33.451-46.74 6.082-11.398 16.155-18.284 26.45-23.3 10.931 9.221 25.037 14.794 40.427 14.794 15.385 0 29.487-5.575 40.413-14.798 17.489 8.514 32.413 21.339 32.413 50.006z"/><path d="m460.549 72.227.057.028c1.432.716 2.951 1.055 4.447 1.055 3.663 0 7.187-2.033 8.94-5.541 2.47-4.939.439-10.961-4.501-13.431s-10.946-.469-13.416 4.473c-2.469 4.94-.467 10.947 4.473 13.416z"/></g></g></svg>