<svg id="Capa_1" enable-background="new 0 0 511.805 511.805" height="512" viewBox="0 0 511.805 511.805" width="512" xmlns="http://www.w3.org/2000/svg"><g><g><path d="m282.821 461.323 187.432-205.653c47.408-52.017 45.553-132.112-4.213-181.878l-.44-.44c-51.443-51.443-134.848-51.443-186.29 0l-16 16c-4.158 4.158-10.897 4.165-15.063.015l-16.46-16.393c-51.473-51.264-134.732-51.18-186.101.189-50.02 50.021-51.603 130.617-3.586 182.562l190.213 205.776c13.636 14.752 36.976 14.67 50.508-.178z" fill="#fd8087"/><g><path d="m275.707 461.501-190.213-205.776c-48.016-51.945-46.433-132.541 3.586-182.561 20.183-20.183 45.29-32.445 71.457-36.79-40.527-6.735-83.593 5.532-114.852 36.79-50.019 50.02-51.602 130.616-3.585 182.561l190.213 205.776c12.483 13.504 33.093 14.568 46.872 3.263-1.214-.995-2.38-2.076-3.478-3.263z" fill="#fe646f"/></g><path d="m222.463 450.846 24.633-26.447c5.406-5.804 14.569-5.901 20.097-.214l25.534 26.27 100.033-109.758-27.973-28.779c-3.696-3.803-3.76-9.836-.146-13.716l39.349-42.246c27.854-29.905 26.187-76.895-3.719-104.75-13.765-12.821-31.701-19.881-50.503-19.881-20.504 0-40.276 8.602-54.246 23.601l-33.651 36.128c-3.878 4.163-10.45 4.233-14.415.153l-36.093-37.132c-14.705-15.129-34.647-23.156-55.864-22.409-17.304.609-33.952 7.346-46.817 18.934-15.699 14.141-24.477 33.76-24.581 54.79-.097 19.719 7.952 38.61 21.696 52.751l39.121 40.248c4.856 4.996 4.94 12.923.192 18.021l-23.548 25.281z" fill="#fe646f"/><path d="m390.691 367.868-192.571-198.119c-20.831-21.432-55.092-21.918-76.524-1.087-21.432 20.831-21.918 55.092-1.087 76.524l192.571 198.119c20.831 21.432 55.092 21.918 76.524 1.087 21.432-20.832 21.919-55.093 1.087-76.524z" fill="#fef1da"/><path d="m324.075 394.389 17.347-15.717c5.211-4.722 5.469-12.824.567-17.867l-140.999-145.061c-4.816-4.955-12.75-5.028-17.657-.163l-16.192 16.056c-4.828 4.787-4.911 12.566-.187 17.456l139.844 144.723c4.66 4.822 12.307 5.076 17.277.573z" fill="#fddeb0"/><path d="m166.949 292.963 103.444 106.424 73.859-79.296-103.444-106.425z" fill="#fae2c0"/><path d="m187.758 270.622 103.146 106.744 32.876-35.295-103.445-106.425z" fill="#fccd7f"/><path d="m201.044 444.497 188.311-202.173c20.37-21.87 19.155-56.113-2.715-76.483-21.87-20.37-56.113-19.155-76.483 2.715l-188.311 202.173c-20.37 21.87-19.155 56.113 2.715 76.483 21.87 20.371 56.113 19.155 76.483-2.715z" fill="#fef1da"/><path d="m171.248 379.28 16.56 16.545c4.975 4.971 13.08 4.825 17.873-.321l137.879-148.029c4.71-5.056 4.389-12.984-.714-17.643l-16.84-15.375c-5.021-4.584-12.795-4.281-17.444.681l-137.599 146.858c-4.586 4.894-4.46 12.544.285 17.284z" fill="#fddeb0"/></g><g><path d="m279.162 456.137-1.927 2.114c-5.103 5.598-12.084 8.696-19.659 8.723-.033 0-.065 0-.098 0-7.537 0-14.501-3.046-19.621-8.583l-3.979-4.305c-2.812-3.042-7.556-3.229-10.598-.417s-3.229 7.557-.417 10.598l3.979 4.306c7.878 8.523 19.039 13.402 30.641 13.402h.146c11.655-.041 22.841-5.005 30.692-13.619l1.927-2.115c2.79-3.062 2.57-7.805-.492-10.595-3.06-2.79-7.803-2.571-10.594.491z"/><path d="m436.512 283.491-43.647 47.89c-2.791 3.062-2.57 7.805.491 10.595 1.438 1.311 3.247 1.957 5.05 1.957 2.036 0 4.065-.824 5.545-2.448l43.647-47.89c2.791-3.062 2.57-7.805-.491-10.595s-7.804-2.571-10.595.491z"/><path d="m471.005 71.084-.436-.437c-54.207-54.199-142.403-54.195-196.605.007l-18.188 18.188-18.658-18.582c-54.202-53.983-142.307-53.894-196.4.2-25.53 25.531-39.981 59.471-40.69 95.57-.709 36.098 12.398 70.581 36.906 97.094l71.416 77.259c1.478 1.599 3.491 2.409 5.509 2.409 1.821 0 3.646-.659 5.089-1.993 3.042-2.812 3.229-7.557.417-10.598l-71.416-77.259c-21.864-23.653-33.556-54.414-32.924-86.618.633-32.204 13.524-62.482 36.3-85.258 48.256-48.256 126.854-48.337 175.208-.178l19.055 18.978c5.631 5.606 14.781 5.597 20.399-.021l18.583-18.583c48.355-48.354 127.036-48.356 175.39-.009l.436.437c46.954 46.947 48.699 122.164 3.972 171.238l-6.303 6.916c-2.791 3.062-2.571 7.805.491 10.595 3.061 2.789 7.805 2.571 10.595-.491l6.303-6.916c50.137-55.011 48.181-139.325-4.449-191.948z"/><path d="m411.333 203.254c-.584-16.448-7.538-31.684-19.582-42.901-12.043-11.217-27.747-17.075-44.182-16.49-16.448.584-31.684 7.538-42.901 19.581l-28.84 30.963c-2.823 3.031-2.654 7.777.376 10.6 3.031 2.822 7.775 2.654 10.6-.376l28.84-30.963c8.486-9.111 20.013-14.372 32.457-14.814 12.446-.437 24.314 3.988 33.426 12.476 9.111 8.486 14.373 20.013 14.814 32.457.442 12.443-3.989 24.314-12.476 33.426l-188.309 202.173c-17.519 18.808-47.074 19.859-65.883 2.338-9.111-8.486-14.373-20.013-14.814-32.457-.442-12.444 3.989-24.315 12.476-33.426l137.672-147.807c2.823-3.031 2.654-7.777-.376-10.6-3.031-2.822-7.777-2.655-10.6.376l-137.673 147.808c-11.217 12.043-17.074 27.734-16.49 44.182.583 16.448 7.538 31.684 19.581 42.901 11.853 11.04 26.929 16.501 41.976 16.5 16.514-.001 32.991-6.583 45.108-19.591l188.311-202.173c11.217-12.044 17.073-27.735 16.489-44.183z"/><path d="m263.526 322.396c-2.823 3.031-2.654 7.777.376 10.6 3.03 2.822 7.776 2.654 10.6-.376l74.545-80.034c3.653-3.922 5.545-9.031 5.328-14.386-.217-5.354-2.516-10.294-6.474-13.907l-16.84-15.375c-8.01-7.313-20.558-6.822-27.973 1.092l-137.598 146.858c-7.397 7.896-7.197 20.07.457 27.718l16.56 16.546c3.771 3.768 8.755 5.829 14.07 5.829.123 0 .247-.001.371-.003 5.453-.098 10.504-2.35 14.221-6.341l41.549-44.607c2.823-3.031 2.654-7.777-.376-10.6-3.031-2.823-7.777-2.655-10.6.376l-41.549 44.607c-.918.986-2.167 1.543-3.515 1.567-1.349.018-2.615-.487-3.569-1.44l-16.56-16.545c-1.892-1.89-1.941-4.899-.113-6.851l137.598-146.859c1.834-1.956 4.935-2.076 6.914-.27l16.84 15.375c.979.893 1.546 2.114 1.6 3.438s-.414 2.586-1.317 3.556z"/><path d="m355.542 323.423c-2.824-3.031-7.569-3.2-10.6-.376s-3.2 7.569-.376 10.6l39.301 42.195c8.487 9.111 12.917 20.982 12.476 33.426-.442 12.444-5.703 23.971-14.814 32.457-9.111 8.487-20.97 12.917-33.426 12.476-12.443-.442-23.97-5.703-32.457-14.814l-34.057-36.564c-2.824-3.032-7.57-3.199-10.6-.376-3.031 2.823-3.2 7.569-.376 10.6l34.057 36.564c11.217 12.043 26.453 18.998 42.901 19.581.749.027 1.494.04 2.24.04 15.627 0 30.447-5.823 41.942-16.53 12.043-11.217 18.998-26.453 19.582-42.901s-5.272-32.138-16.49-44.182z"/><path d="m240.213 210.609c3.031-2.823 3.2-7.569.376-10.6l-34.058-36.564c-23.157-24.861-62.222-26.247-87.083-3.091-12.043 11.217-18.998 26.453-19.581 42.901-.584 16.448 5.272 32.138 16.49 44.182l39.302 42.195c1.478 1.586 3.481 2.388 5.49 2.388 1.831 0 3.666-.666 5.11-2.012 3.031-2.823 3.2-7.569.376-10.6l-39.302-42.195c-8.487-9.111-12.917-20.982-12.476-33.426.442-12.443 5.703-23.97 14.814-32.457 18.807-17.52 48.363-16.472 65.883 2.338l34.057 36.564c2.826 3.031 7.572 3.199 10.602.377z"/><path d="m190.253 219.996c1.98-1.807 5.082-1.687 6.914.27l11.6 12.381c2.833 3.023 7.579 3.177 10.601.345s3.177-7.578.345-10.601l-11.601-12.381c-7.416-7.915-19.965-8.404-27.973-1.091l-16.841 15.375c-3.958 3.614-6.257 8.553-6.474 13.908s1.675 10.464 5.328 14.386l14.005 15.036c1.478 1.586 3.481 2.388 5.49 2.388 1.831 0 3.666-.666 5.11-2.012 3.031-2.823 3.2-7.569.376-10.6l-14.005-15.036c-.903-.969-1.371-2.232-1.317-3.555.053-1.324.622-2.544 1.6-3.438z"/><path d="m318.093 390.52c-.954.953-2.212 1.46-3.569 1.44-1.348-.024-2.596-.581-3.515-1.567l-8.922-9.579c-2.825-3.031-7.57-3.199-10.6-.376-3.031 2.823-3.2 7.569-.376 10.6l8.922 9.579c3.717 3.991 8.768 6.243 14.221 6.341.124.002.247.003.371.003 5.315 0 10.299-2.062 14.071-5.83l16.56-16.545c7.653-7.647 7.854-19.822.457-27.718l-10.708-11.428c-2.832-3.023-7.578-3.176-10.601-.345-3.023 2.833-3.177 7.579-.345 10.601l10.708 11.428c1.829 1.952 1.779 4.96-.113 6.851z"/></g></g></svg>